<svg width="46" height="24" viewBox="0 0 335 185" fill="none" xmlns="http://www.w3.org/2000/svg">
    <g clip-path="url(#clip0_18_20233)">
      <rect width="335" height="185" rx="20" fill="url(#paint0_linear_18_20233)" />
      <g filter="url(#filter0_b_18_20233)">
        <rect width="335" height="185" rx="20" fill="white" fill-opacity="0.03" />
      </g>
      <path fill-rule="evenodd" clip-rule="evenodd"
        d="M0 23.8296V164.904C0 175.949 8.95431 184.904 20 184.904H301.466C313.251 144.825 276.414 98.617 129.93 75.6135C49.5228 62.9865 2.87004 49.7808 0 23.8296ZM0.190598 17.1312C0.290924 16.4077 0.429951 15.6966 0.60552 15C0.439363 15.7191 0.301108 16.4294 0.190598 17.1312Z"
        fill="white" fill-opacity="0.08" />
      <g clip-path="url(#clip1_18_20233)">
        <path
          d="M303 148.667C304.84 148.667 306.333 150.16 306.333 152C306.333 152.433 306.247 152.84 306.093 153.22L308.04 155.167C309.047 154.327 309.84 153.24 310.327 152C309.173 149.073 306.327 147 302.993 147C302.06 147 301.167 147.167 300.34 147.467L301.78 148.907C302.16 148.753 302.567 148.667 303 148.667ZM296.333 146.847L297.853 148.367L298.16 148.673C297.053 149.533 296.187 150.68 295.667 152C296.82 154.927 299.667 157 303 157C304.033 157 305.02 156.8 305.92 156.44L306.2 156.72L308.153 158.667L309 157.82L297.18 146L296.333 146.847ZM300.02 150.533L301.053 151.567C301.02 151.707 301 151.853 301 152C301 153.107 301.893 154 303 154C303.147 154 303.293 153.98 303.433 153.947L304.467 154.98C304.02 155.2 303.527 155.333 303 155.333C301.16 155.333 299.667 153.84 299.667 152C299.667 151.473 299.8 150.98 300.02 150.533ZM302.893 150.013L304.993 152.113L305.007 152.007C305.007 150.9 304.113 150.007 303.007 150.007L302.893 150.013Z"
          fill="#FCFCFD" />
      </g>
      <path
        d="M28.392 156V154.02H24.528V153.144C24.544 153.104 24.568 153.056 24.6 153C24.64 152.944 24.684 152.88 24.732 152.808L28.032 148.08H29.604V153.024H30.948V154.02H29.604V156H28.392ZM25.728 153.024H28.392V150.228C28.392 150.036 28.396 149.84 28.404 149.64C28.42 149.432 28.432 149.228 28.44 149.028H28.416C28.328 149.22 28.212 149.432 28.068 149.664C27.932 149.888 27.804 150.084 27.684 150.252L25.812 152.916C25.796 152.932 25.78 152.948 25.764 152.964C25.756 152.98 25.744 153 25.728 153.024ZM35.1848 147.972C35.7208 147.972 36.1848 148.06 36.5768 148.236C36.9768 148.404 37.2848 148.644 37.5008 148.956C37.7168 149.268 37.8248 149.644 37.8248 150.084C37.8248 150.492 37.7248 150.852 37.5248 151.164C37.3328 151.468 37.0488 151.7 36.6728 151.86V151.872C37.1288 152.04 37.4888 152.292 37.7528 152.628C38.0248 152.956 38.1608 153.364 38.1608 153.852C38.1608 154.324 38.0368 154.728 37.7888 155.064C37.5488 155.4 37.2048 155.66 36.7568 155.844C36.3168 156.028 35.7928 156.12 35.1848 156.12C34.5768 156.12 34.0488 156.028 33.6008 155.844C33.1608 155.66 32.8168 155.4 32.5688 155.064C32.3208 154.728 32.1968 154.324 32.1968 153.852C32.1968 153.372 32.3288 152.964 32.5928 152.628C32.8568 152.292 33.2248 152.04 33.6968 151.872V151.86C33.3368 151.708 33.0528 151.48 32.8448 151.176C32.6368 150.864 32.5328 150.5 32.5328 150.084C32.5328 149.644 32.6408 149.268 32.8568 148.956C33.0728 148.644 33.3808 148.404 33.7808 148.236C34.1808 148.06 34.6488 147.972 35.1848 147.972ZM35.1848 149.052C34.7608 149.052 34.4208 149.156 34.1648 149.364C33.9168 149.572 33.7928 149.856 33.7928 150.216C33.7928 150.576 33.9208 150.86 34.1768 151.068C34.4328 151.268 34.7688 151.368 35.1848 151.368C35.6008 151.368 35.9328 151.268 36.1808 151.068C36.4368 150.86 36.5648 150.576 36.5648 150.216C36.5648 149.856 36.4408 149.572 36.1928 149.364C35.9448 149.156 35.6088 149.052 35.1848 149.052ZM35.1848 155.04C35.5368 155.04 35.8368 154.988 36.0848 154.884C36.3328 154.78 36.5248 154.628 36.6608 154.428C36.7968 154.228 36.8648 153.996 36.8648 153.732C36.8648 153.452 36.7928 153.216 36.6488 153.024C36.5128 152.824 36.3208 152.672 36.0728 152.568C35.8248 152.464 35.5288 152.412 35.1848 152.412C34.8488 152.412 34.5528 152.464 34.2968 152.568C34.0408 152.672 33.8408 152.824 33.6968 153.024C33.5608 153.216 33.4928 153.452 33.4928 153.732C33.4928 153.996 33.5608 154.228 33.6968 154.428C33.8328 154.628 34.0288 154.78 34.2848 154.884C34.5408 154.988 34.8408 155.04 35.1848 155.04ZM42.6625 156.12C41.7105 156.12 40.9625 155.776 40.4185 155.088C39.8825 154.392 39.6145 153.376 39.6145 152.04C39.6145 150.704 39.8825 149.692 40.4185 149.004C40.9625 148.308 41.7105 147.96 42.6625 147.96C43.6225 147.96 44.3705 148.308 44.9065 149.004C45.4505 149.692 45.7225 150.704 45.7225 152.04C45.7225 153.376 45.4505 154.392 44.9065 155.088C44.3705 155.776 43.6225 156.12 42.6625 156.12ZM42.6625 155.028C43.0465 155.028 43.3665 154.92 43.6225 154.704C43.8865 154.48 44.0825 154.148 44.2105 153.708C44.3465 153.26 44.4145 152.704 44.4145 152.04C44.4145 151.376 44.3465 150.824 44.2105 150.384C44.0825 149.936 43.8865 149.604 43.6225 149.388C43.3665 149.164 43.0465 149.052 42.6625 149.052C42.2785 149.052 41.9545 149.164 41.6905 149.388C41.4345 149.604 41.2425 149.936 41.1145 150.384C40.9865 150.824 40.9225 151.376 40.9225 152.04C40.9225 152.704 40.9865 153.26 41.1145 153.708C41.2425 154.148 41.4345 154.48 41.6905 154.704C41.9545 154.92 42.2785 155.028 42.6625 155.028ZM47.2697 156V155.064C48.0297 154.52 48.6657 154.04 49.1777 153.624C49.6977 153.208 50.1137 152.824 50.4257 152.472C50.7377 152.12 50.9617 151.788 51.0977 151.476C51.2417 151.156 51.3137 150.832 51.3137 150.504C51.3137 150.08 51.1817 149.736 50.9177 149.472C50.6537 149.208 50.2857 149.076 49.8137 149.076C49.3177 149.076 48.9217 149.244 48.6257 149.58C48.3377 149.908 48.1737 150.36 48.1337 150.936L47.0177 150.42C47.0737 149.916 47.2217 149.48 47.4617 149.112C47.7017 148.744 48.0257 148.46 48.4337 148.26C48.8497 148.06 49.3297 147.96 49.8737 147.96C50.3217 147.96 50.7137 148.024 51.0497 148.152C51.3937 148.28 51.6817 148.46 51.9137 148.692C52.1457 148.916 52.3217 149.18 52.4417 149.484C52.5697 149.788 52.6337 150.112 52.6337 150.456C52.6337 150.96 52.5097 151.448 52.2617 151.92C52.0137 152.384 51.6217 152.86 51.0857 153.348C50.5497 153.836 49.8457 154.36 48.9737 154.92V154.944C49.0697 154.928 49.2017 154.92 49.3697 154.92C49.5377 154.912 49.7057 154.908 49.8737 154.908C50.0417 154.9 50.1777 154.896 50.2817 154.896H52.7777V156H47.2697ZM61.059 149.94L62.031 150.924L62.919 152.148L62.127 152.724L61.239 151.5L60.603 150.276L60.831 150.108L61.059 149.94ZM60.603 149.94L60.831 150.108L61.059 150.276L60.423 151.5L59.547 152.724L58.755 152.148L59.643 150.924L60.603 149.94ZM58.251 148.764L59.691 149.232L60.927 149.844L60.831 150.108L60.747 150.384L59.391 150.144L57.963 149.688L58.251 148.764ZM61.335 147.24L61.323 148.752L61.119 150.108H60.831H60.543L60.351 148.752L60.339 147.24H61.335ZM63.423 148.764L63.711 149.688L62.283 150.144L60.927 150.384L60.831 150.108L60.747 149.844L61.983 149.232L63.423 148.764ZM67.9848 149.94L68.9568 150.924L69.8448 152.148L69.0528 152.724L68.1648 151.5L67.5288 150.276L67.7568 150.108L67.9848 149.94ZM67.5288 149.94L67.7568 150.108L67.9848 150.276L67.3488 151.5L66.4728 152.724L65.6808 152.148L66.5688 150.924L67.5288 149.94ZM65.1768 148.764L66.6168 149.232L67.8528 149.844L67.7568 150.108L67.6728 150.384L66.3168 150.144L64.8888 149.688L65.1768 148.764ZM68.2608 147.24L68.2488 148.752L68.0448 150.108H67.7568H67.4688L67.2768 148.752L67.2648 147.24H68.2608ZM70.3488 148.764L70.6368 149.688L69.2088 150.144L67.8528 150.384L67.7568 150.108L67.6728 149.844L68.9088 149.232L70.3488 148.764ZM74.9106 149.94L75.8826 150.924L76.7706 152.148L75.9786 152.724L75.0906 151.5L74.4546 150.276L74.6826 150.108L74.9106 149.94ZM74.4546 149.94L74.6826 150.108L74.9106 150.276L74.2746 151.5L73.3986 152.724L72.6066 152.148L73.4946 150.924L74.4546 149.94ZM72.1026 148.764L73.5426 149.232L74.7786 149.844L74.6826 150.108L74.5986 150.384L73.2426 150.144L71.8146 149.688L72.1026 148.764ZM75.1866 147.24L75.1746 148.752L74.9706 150.108H74.6826H74.3946L74.2026 148.752L74.1906 147.24H75.1866ZM77.2746 148.764L77.5626 149.688L76.1346 150.144L74.7786 150.384L74.6826 150.108L74.5986 149.844L75.8346 149.232L77.2746 148.764ZM81.8363 149.94L82.8083 150.924L83.6963 152.148L82.9043 152.724L82.0163 151.5L81.3803 150.276L81.6083 150.108L81.8363 149.94ZM81.3803 149.94L81.6083 150.108L81.8363 150.276L81.2003 151.5L80.3243 152.724L79.5323 152.148L80.4203 150.924L81.3803 149.94ZM79.0283 148.764L80.4683 149.232L81.7043 149.844L81.6083 150.108L81.5243 150.384L80.1683 150.144L78.7403 149.688L79.0283 148.764ZM82.1123 147.24L82.1003 148.752L81.8963 150.108H81.6083H81.3203L81.1283 148.752L81.1163 147.24H82.1123ZM84.2003 148.764L84.4883 149.688L83.0603 150.144L81.7043 150.384L81.6083 150.108L81.5243 149.844L82.7603 149.232L84.2003 148.764ZM92.6645 149.94L93.6365 150.924L94.5245 152.148L93.7325 152.724L92.8445 151.5L92.2085 150.276L92.4365 150.108L92.6645 149.94ZM92.2085 149.94L92.4365 150.108L92.6645 150.276L92.0285 151.5L91.1525 152.724L90.3605 152.148L91.2485 150.924L92.2085 149.94ZM89.8565 148.764L91.2965 149.232L92.5325 149.844L92.4365 150.108L92.3525 150.384L90.9965 150.144L89.5685 149.688L89.8565 148.764ZM92.9405 147.24L92.9285 148.752L92.7245 150.108H92.4365H92.1485L91.9565 148.752L91.9445 147.24H92.9405ZM95.0285 148.764L95.3165 149.688L93.8885 150.144L92.5325 150.384L92.4365 150.108L92.3525 149.844L93.5885 149.232L95.0285 148.764ZM99.5903 149.94L100.562 150.924L101.45 152.148L100.658 152.724L99.7703 151.5L99.1343 150.276L99.3623 150.108L99.5903 149.94ZM99.1343 149.94L99.3623 150.108L99.5903 150.276L98.9543 151.5L98.0783 152.724L97.2863 152.148L98.1743 150.924L99.1343 149.94ZM96.7823 148.764L98.2223 149.232L99.4583 149.844L99.3623 150.108L99.2783 150.384L97.9223 150.144L96.4943 149.688L96.7823 148.764ZM99.8663 147.24L99.8543 148.752L99.6503 150.108H99.3623H99.0742L98.8823 148.752L98.8703 147.24H99.8663ZM101.954 148.764L102.242 149.688L100.814 150.144L99.4583 150.384L99.3623 150.108L99.2783 149.844L100.514 149.232L101.954 148.764ZM106.516 149.94L107.488 150.924L108.376 152.148L107.584 152.724L106.696 151.5L106.06 150.276L106.288 150.108L106.516 149.94ZM106.06 149.94L106.288 150.108L106.516 150.276L105.88 151.5L105.004 152.724L104.212 152.148L105.1 150.924L106.06 149.94ZM103.708 148.764L105.148 149.232L106.384 149.844L106.288 150.108L106.204 150.384L104.848 150.144L103.42 149.688L103.708 148.764ZM106.792 147.24L106.78 148.752L106.576 150.108H106.288H106L105.808 148.752L105.796 147.24H106.792ZM108.88 148.764L109.168 149.688L107.74 150.144L106.384 150.384L106.288 150.108L106.204 149.844L107.44 149.232L108.88 148.764ZM113.442 149.94L114.414 150.924L115.302 152.148L114.51 152.724L113.622 151.5L112.986 150.276L113.214 150.108L113.442 149.94ZM112.986 149.94L113.214 150.108L113.442 150.276L112.806 151.5L111.93 152.724L111.138 152.148L112.026 150.924L112.986 149.94ZM110.634 148.764L112.074 149.232L113.31 149.844L113.214 150.108L113.13 150.384L111.774 150.144L110.346 149.688L110.634 148.764ZM113.718 147.24L113.706 148.752L113.502 150.108H113.214H112.926L112.734 148.752L112.722 147.24H113.718ZM115.806 148.764L116.094 149.688L114.666 150.144L113.31 150.384L113.214 150.108L113.13 149.844L114.366 149.232L115.806 148.764ZM124.978 156V154.02H121.114V153.144C121.13 153.104 121.154 153.056 121.186 153C121.226 152.944 121.27 152.88 121.318 152.808L124.618 148.08H126.19V153.024H127.534V154.02H126.19V156H124.978ZM122.314 153.024H124.978V150.228C124.978 150.036 124.982 149.84 124.99 149.64C125.006 149.432 125.018 149.228 125.026 149.028H125.002C124.914 149.22 124.798 149.432 124.654 149.664C124.518 149.888 124.39 150.084 124.27 150.252L122.398 152.916C122.382 152.932 122.366 152.948 122.35 152.964C122.342 152.98 122.33 153 122.314 153.024ZM128.844 156V155.064C129.604 154.52 130.24 154.04 130.752 153.624C131.272 153.208 131.688 152.824 132 152.472C132.312 152.12 132.536 151.788 132.672 151.476C132.816 151.156 132.888 150.832 132.888 150.504C132.888 150.08 132.756 149.736 132.492 149.472C132.228 149.208 131.86 149.076 131.388 149.076C130.892 149.076 130.496 149.244 130.2 149.58C129.912 149.908 129.748 150.36 129.708 150.936L128.592 150.42C128.648 149.916 128.796 149.48 129.036 149.112C129.276 148.744 129.6 148.46 130.008 148.26C130.424 148.06 130.904 147.96 131.448 147.96C131.896 147.96 132.288 148.024 132.624 148.152C132.968 148.28 133.256 148.46 133.488 148.692C133.72 148.916 133.896 149.18 134.016 149.484C134.144 149.788 134.208 150.112 134.208 150.456C134.208 150.96 134.084 151.448 133.836 151.92C133.588 152.384 133.196 152.86 132.66 153.348C132.124 153.836 131.42 154.36 130.548 154.92V154.944C130.644 154.928 130.776 154.92 130.944 154.92C131.112 154.912 131.28 154.908 131.448 154.908C131.616 154.9 131.752 154.896 131.856 154.896H134.352V156H128.844ZM138.767 147.972C139.303 147.972 139.767 148.06 140.159 148.236C140.559 148.404 140.867 148.644 141.083 148.956C141.299 149.268 141.407 149.644 141.407 150.084C141.407 150.492 141.307 150.852 141.107 151.164C140.915 151.468 140.631 151.7 140.255 151.86V151.872C140.711 152.04 141.071 152.292 141.335 152.628C141.607 152.956 141.743 153.364 141.743 153.852C141.743 154.324 141.619 154.728 141.371 155.064C141.131 155.4 140.787 155.66 140.339 155.844C139.899 156.028 139.375 156.12 138.767 156.12C138.159 156.12 137.631 156.028 137.183 155.844C136.743 155.66 136.399 155.4 136.151 155.064C135.903 154.728 135.779 154.324 135.779 153.852C135.779 153.372 135.911 152.964 136.175 152.628C136.439 152.292 136.807 152.04 137.279 151.872V151.86C136.919 151.708 136.635 151.48 136.427 151.176C136.219 150.864 136.115 150.5 136.115 150.084C136.115 149.644 136.223 149.268 136.439 148.956C136.655 148.644 136.963 148.404 137.363 148.236C137.763 148.06 138.231 147.972 138.767 147.972ZM138.767 149.052C138.343 149.052 138.003 149.156 137.747 149.364C137.499 149.572 137.375 149.856 137.375 150.216C137.375 150.576 137.503 150.86 137.759 151.068C138.015 151.268 138.351 151.368 138.767 151.368C139.183 151.368 139.515 151.268 139.763 151.068C140.019 150.86 140.147 150.576 140.147 150.216C140.147 149.856 140.023 149.572 139.775 149.364C139.527 149.156 139.191 149.052 138.767 149.052ZM138.767 155.04C139.119 155.04 139.419 154.988 139.667 154.884C139.915 154.78 140.107 154.628 140.243 154.428C140.379 154.228 140.447 153.996 140.447 153.732C140.447 153.452 140.375 153.216 140.231 153.024C140.095 152.824 139.903 152.672 139.655 152.568C139.407 152.464 139.111 152.412 138.767 152.412C138.431 152.412 138.135 152.464 137.879 152.568C137.623 152.672 137.423 152.824 137.279 153.024C137.143 153.216 137.075 153.452 137.075 153.732C137.075 153.996 137.143 154.228 137.279 154.428C137.415 154.628 137.611 154.78 137.867 154.884C138.123 154.988 138.423 155.04 138.767 155.04ZM146.029 147.96C146.709 147.96 147.281 148.128 147.745 148.464C148.217 148.8 148.569 149.272 148.801 149.88C149.041 150.488 149.161 151.204 149.161 152.028C149.161 152.94 149.037 153.7 148.789 154.308C148.541 154.908 148.185 155.36 147.721 155.664C147.257 155.968 146.697 156.12 146.041 156.12C145.369 156.12 144.793 155.972 144.313 155.676C143.833 155.38 143.473 154.936 143.233 154.344L144.445 153.78C144.557 154.156 144.741 154.456 144.997 154.68C145.261 154.904 145.617 155.016 146.065 155.016C146.433 155.016 146.741 154.944 146.989 154.8C147.237 154.656 147.433 154.448 147.577 154.176C147.729 153.904 147.837 153.576 147.901 153.192C147.965 152.808 147.997 152.376 147.997 151.896C147.997 151.872 147.997 151.852 147.997 151.836C147.997 151.812 147.997 151.788 147.997 151.764H147.949C147.861 152.084 147.701 152.344 147.469 152.544C147.245 152.744 146.989 152.892 146.701 152.988C146.413 153.076 146.125 153.12 145.837 153.12C145.325 153.12 144.869 153.02 144.469 152.82C144.077 152.612 143.769 152.324 143.545 151.956C143.321 151.588 143.209 151.152 143.209 150.648C143.209 150.096 143.321 149.62 143.545 149.22C143.777 148.82 144.101 148.512 144.517 148.296C144.941 148.072 145.445 147.96 146.029 147.96ZM146.041 149.088C145.537 149.088 145.149 149.224 144.877 149.496C144.613 149.768 144.481 150.148 144.481 150.636C144.481 151.068 144.621 151.408 144.901 151.656C145.189 151.896 145.569 152.016 146.041 152.016C146.345 152.016 146.613 151.956 146.845 151.836C147.077 151.708 147.257 151.536 147.385 151.32C147.521 151.104 147.589 150.852 147.589 150.564C147.589 150.26 147.521 150 147.385 149.784C147.257 149.56 147.077 149.388 146.845 149.268C146.613 149.148 146.345 149.088 146.041 149.088Z"
        fill="white" />
      <path
        d="M187.684 149.94L188.656 150.924L189.544 152.148L188.752 152.724L187.864 151.5L187.228 150.276L187.456 150.108L187.684 149.94ZM187.228 149.94L187.456 150.108L187.684 150.276L187.048 151.5L186.172 152.724L185.38 152.148L186.268 150.924L187.228 149.94ZM184.876 148.764L186.316 149.232L187.552 149.844L187.456 150.108L187.372 150.384L186.016 150.144L184.588 149.688L184.876 148.764ZM187.96 147.24L187.948 148.752L187.744 150.108H187.456H187.168L186.976 148.752L186.964 147.24H187.96ZM190.048 148.764L190.336 149.688L188.908 150.144L187.552 150.384L187.456 150.108L187.372 149.844L188.608 149.232L190.048 148.764ZM194.61 149.94L195.582 150.924L196.47 152.148L195.678 152.724L194.79 151.5L194.154 150.276L194.382 150.108L194.61 149.94ZM194.154 149.94L194.382 150.108L194.61 150.276L193.974 151.5L193.098 152.724L192.306 152.148L193.194 150.924L194.154 149.94ZM191.802 148.764L193.242 149.232L194.478 149.844L194.382 150.108L194.298 150.384L192.942 150.144L191.514 149.688L191.802 148.764ZM194.886 147.24L194.874 148.752L194.67 150.108H194.382H194.094L193.902 148.752L193.89 147.24H194.886ZM196.974 148.764L197.262 149.688L195.834 150.144L194.478 150.384L194.382 150.108L194.298 149.844L195.534 149.232L196.974 148.764ZM202.916 147.3L199.34 156.84H198.14L201.716 147.3H202.916ZM206.891 149.94L207.863 150.924L208.751 152.148L207.959 152.724L207.071 151.5L206.435 150.276L206.663 150.108L206.891 149.94ZM206.435 149.94L206.663 150.108L206.891 150.276L206.255 151.5L205.379 152.724L204.587 152.148L205.475 150.924L206.435 149.94ZM204.083 148.764L205.523 149.232L206.759 149.844L206.663 150.108L206.579 150.384L205.223 150.144L203.795 149.688L204.083 148.764ZM207.167 147.24L207.155 148.752L206.951 150.108H206.663H206.375L206.183 148.752L206.171 147.24H207.167ZM209.255 148.764L209.543 149.688L208.115 150.144L206.759 150.384L206.663 150.108L206.579 149.844L207.815 149.232L209.255 148.764ZM213.817 149.94L214.789 150.924L215.677 152.148L214.885 152.724L213.997 151.5L213.361 150.276L213.589 150.108L213.817 149.94ZM213.361 149.94L213.589 150.108L213.817 150.276L213.181 151.5L212.305 152.724L211.513 152.148L212.401 150.924L213.361 149.94ZM211.009 148.764L212.449 149.232L213.685 149.844L213.589 150.108L213.505 150.384L212.149 150.144L210.721 149.688L211.009 148.764ZM214.093 147.24L214.081 148.752L213.877 150.108H213.589H213.301L213.109 148.752L213.097 147.24H214.093ZM216.181 148.764L216.469 149.688L215.041 150.144L213.685 150.384L213.589 150.108L213.505 149.844L214.741 149.232L216.181 148.764Z"
        fill="white" />
      <path
        d="M32.246 122.76V124.048H29.082V132H27.584V124.048H24.42V122.76H32.246ZM35.4051 124.86C36.0864 124.86 36.6884 125.005 37.2111 125.294C37.7337 125.583 38.1397 126.003 38.4291 126.554C38.7277 127.095 38.8771 127.744 38.8771 128.5C38.8771 129.256 38.7277 129.909 38.4291 130.46C38.1397 131.001 37.7337 131.417 37.2111 131.706C36.6884 131.995 36.0864 132.14 35.4051 132.14C34.7237 132.14 34.1217 131.995 33.5991 131.706C33.0764 131.417 32.6657 131.001 32.3671 130.46C32.0684 129.909 31.9191 129.256 31.9191 128.5C31.9191 127.744 32.0684 127.095 32.3671 126.554C32.6657 126.003 33.0764 125.583 33.5991 125.294C34.1217 125.005 34.7237 124.86 35.4051 124.86ZM35.4051 126.036C34.9851 126.036 34.6257 126.134 34.3271 126.33C34.0377 126.517 33.8137 126.792 33.6551 127.156C33.4964 127.52 33.4171 127.968 33.4171 128.5C33.4171 129.023 33.4964 129.471 33.6551 129.844C33.8137 130.208 34.0377 130.488 34.3271 130.684C34.6257 130.871 34.9851 130.964 35.4051 130.964C35.8251 130.964 36.1797 130.871 36.4691 130.684C36.7584 130.488 36.9824 130.208 37.1411 129.844C37.2997 129.471 37.3791 129.023 37.3791 128.5C37.3791 127.968 37.2997 127.52 37.1411 127.156C36.9824 126.792 36.7584 126.517 36.4691 126.33C36.1797 126.134 35.8251 126.036 35.4051 126.036ZM40.7616 132V125H42.0916L42.1896 126.82L41.9936 126.624C42.1243 126.223 42.3109 125.891 42.5536 125.63C42.8056 125.359 43.0996 125.163 43.4356 125.042C43.7809 124.921 44.1449 124.86 44.5276 124.86C45.0223 124.86 45.4656 124.958 45.8576 125.154C46.2589 125.341 46.5763 125.625 46.8096 126.008C47.0429 126.391 47.1596 126.876 47.1596 127.464V132H45.6616V127.926C45.6616 127.235 45.5169 126.759 45.2276 126.498C44.9476 126.227 44.5929 126.092 44.1636 126.092C43.8556 126.092 43.5569 126.167 43.2676 126.316C42.9783 126.456 42.7356 126.685 42.5396 127.002C42.3529 127.319 42.2596 127.744 42.2596 128.276V132H40.7616ZM55.3568 125L52.2908 132.826C52.0855 133.367 51.8615 133.797 51.6188 134.114C51.3855 134.431 51.1148 134.66 50.8068 134.8C50.4988 134.94 50.1395 135.01 49.7288 135.01C49.3928 135.01 49.0802 134.963 48.7908 134.87C48.5108 134.786 48.2635 134.669 48.0488 134.52L48.4128 133.358C48.5902 133.507 48.7768 133.619 48.9728 133.694C49.1782 133.769 49.3975 133.806 49.6308 133.806C49.8828 133.806 50.1068 133.736 50.3028 133.596C50.5082 133.465 50.6902 133.199 50.8488 132.798L51.1568 132.042L50.4148 130.306L48.2308 125H49.9108L51.4648 129.396L51.8708 130.712L52.3328 129.27L53.8028 125H55.3568ZM64.2056 122.62C65.0363 122.62 65.7549 122.779 66.3616 123.096C66.9683 123.404 67.4816 123.861 67.9016 124.468L66.8936 125.434C66.5389 124.893 66.1376 124.505 65.6896 124.272C65.2509 124.029 64.7283 123.908 64.1216 123.908C63.6736 123.908 63.3049 123.969 63.0156 124.09C62.7263 124.211 62.5116 124.375 62.3716 124.58C62.2409 124.776 62.1756 125 62.1756 125.252C62.1756 125.541 62.2736 125.793 62.4696 126.008C62.6749 126.223 63.0529 126.391 63.6036 126.512L65.4796 126.932C66.3756 127.128 67.0103 127.427 67.3836 127.828C67.7569 128.229 67.9436 128.738 67.9436 129.354C67.9436 129.923 67.7896 130.418 67.4816 130.838C67.1736 131.258 66.7443 131.58 66.1936 131.804C65.6523 132.028 65.0129 132.14 64.2756 132.14C63.6223 132.14 63.0343 132.056 62.5116 131.888C61.9889 131.72 61.5316 131.491 61.1396 131.202C60.7476 130.913 60.4256 130.581 60.1736 130.208L61.2096 129.172C61.4056 129.499 61.6529 129.793 61.9516 130.054C62.2503 130.306 62.5956 130.502 62.9876 130.642C63.3889 130.782 63.8323 130.852 64.3176 130.852C64.7469 130.852 65.1156 130.801 65.4236 130.698C65.7409 130.595 65.9789 130.446 66.1376 130.25C66.3056 130.045 66.3896 129.802 66.3896 129.522C66.3896 129.251 66.2963 129.013 66.1096 128.808C65.9323 128.603 65.5963 128.444 65.1016 128.332L63.0716 127.87C62.5116 127.749 62.0496 127.576 61.6856 127.352C61.3216 127.128 61.0509 126.857 60.8736 126.54C60.6963 126.213 60.6076 125.849 60.6076 125.448C60.6076 124.925 60.7476 124.454 61.0276 124.034C61.3169 123.605 61.7323 123.264 62.2736 123.012C62.8149 122.751 63.4589 122.62 64.2056 122.62ZM71.872 122.942V129.9C71.872 130.245 71.9607 130.497 72.138 130.656C72.3247 130.815 72.572 130.894 72.88 130.894C73.132 130.894 73.3513 130.857 73.538 130.782C73.7247 130.698 73.8973 130.586 74.056 130.446L74.392 131.538C74.1773 131.725 73.9113 131.874 73.594 131.986C73.286 132.089 72.9407 132.14 72.558 132.14C72.1567 132.14 71.788 132.075 71.452 131.944C71.116 131.813 70.8547 131.603 70.668 131.314C70.4813 131.015 70.3833 130.628 70.374 130.152V123.362L71.872 122.942ZM74.28 125V126.176H69.03V125H74.28ZM79.8486 127.506C79.8486 127.039 79.718 126.68 79.4566 126.428C79.2046 126.167 78.8546 126.036 78.4066 126.036C77.9866 126.036 77.6273 126.134 77.3286 126.33C77.03 126.526 76.8106 126.843 76.6706 127.282L75.4106 126.75C75.588 126.181 75.9333 125.723 76.4466 125.378C76.9693 125.033 77.6413 124.86 78.4626 124.86C79.0226 124.86 79.5173 124.953 79.9466 125.14C80.376 125.317 80.712 125.588 80.9546 125.952C81.2066 126.316 81.3326 126.783 81.3326 127.352V130.474C81.3326 130.819 81.5053 130.992 81.8506 130.992C82.0186 130.992 82.182 130.969 82.3406 130.922L82.2566 131.958C82.042 132.061 81.7713 132.112 81.4446 132.112C81.146 132.112 80.8753 132.061 80.6326 131.958C80.3993 131.846 80.2126 131.683 80.0726 131.468C79.942 131.244 79.8766 130.969 79.8766 130.642V130.544L80.1846 130.53C80.1006 130.894 79.928 131.197 79.6666 131.44C79.4053 131.673 79.102 131.851 78.7566 131.972C78.4113 132.084 78.0613 132.14 77.7066 132.14C77.268 132.14 76.8713 132.07 76.5166 131.93C76.1713 131.79 75.896 131.58 75.6906 131.3C75.4946 131.011 75.3966 130.656 75.3966 130.236C75.3966 129.713 75.5646 129.284 75.9006 128.948C76.246 128.612 76.7313 128.383 77.3566 128.262L80.0726 127.73L80.0586 128.78L78.0846 129.186C77.6926 129.261 77.3986 129.368 77.2026 129.508C77.0066 129.648 76.9086 129.853 76.9086 130.124C76.9086 130.385 77.0066 130.595 77.2026 130.754C77.408 130.903 77.6786 130.978 78.0146 130.978C78.248 130.978 78.472 130.95 78.6866 130.894C78.9106 130.838 79.1113 130.749 79.2886 130.628C79.466 130.497 79.6013 130.334 79.6946 130.138C79.7973 129.933 79.8486 129.69 79.8486 129.41V127.506ZM83.787 132V125H85.061L85.201 126.26C85.3877 125.803 85.663 125.457 86.027 125.224C86.4003 124.981 86.8577 124.86 87.399 124.86C87.539 124.86 87.679 124.874 87.819 124.902C87.959 124.921 88.0757 124.953 88.169 125L87.959 126.316C87.8563 126.279 87.7397 126.251 87.609 126.232C87.4877 126.204 87.3197 126.19 87.105 126.19C86.8157 126.19 86.531 126.269 86.251 126.428C85.971 126.577 85.7377 126.806 85.551 127.114C85.3737 127.422 85.285 127.814 85.285 128.29V132H83.787ZM96.1919 125L93.0699 128.192L92.7479 128.416L90.5499 130.698L90.5359 128.99L94.4139 125H96.1919ZM91.0819 121.85V132H89.5839V121.85H91.0819ZM93.2519 127.352L96.3599 132H94.6239L92.1319 128.206L93.2519 127.352Z"
        fill="white" />
      <g clip-path="url(#clip2_18_20233)">
        <circle cx="278" cy="38.9412" r="15" fill="white" fill-opacity="0.5" />
        <circle cx="296" cy="38.9412" r="15" fill="white" fill-opacity="0.6" />
      </g>
      <g filter="url(#filter1_d_18_20233)">
        <path fill-rule="evenodd" clip-rule="evenodd"
          d="M35.8628 47.7749L25.6649 41.1912C25.6649 41.1912 24.3858 40.4623 24.093 39.1038C23.6818 37.1965 25.0377 35.5615 25.0377 35.5615L38.273 44.1088C39.294 44.7688 39.5728 46.1186 38.9164 47.1369C38.2423 48.1827 36.8568 48.4136 35.8628 47.7749Z"
          fill="#38D200" />
        <path fill-rule="evenodd" clip-rule="evenodd"
          d="M26.2033 34.1505C26.2033 34.1505 24.6412 33.2152 24.6412 31.0519C24.6412 28.8957 26.2027 27.9723 26.2027 27.9723L31.7779 24.3537C32.7997 23.6951 34.1665 23.9826 34.8307 24.9958C35.4949 26.009 35.205 27.3644 34.1832 28.023L29.4843 31.0572L37.4906 36.2276C37.4906 36.2276 38.9317 37.0466 39.2156 38.4286C39.6119 40.3568 38.2735 41.9454 38.2735 41.9454L26.2033 34.1505Z"
          fill="#0473EA" />
        <path fill-rule="evenodd" clip-rule="evenodd"
          d="M36.6973 28.9011C36.1737 28.9012 35.8012 29.0648 35.4378 29.2994L32.716 31.0572L35.4378 32.815C35.8048 33.0493 36.1898 33.2133 36.6973 33.2133C37.8982 33.2133 38.8717 32.248 38.8717 31.0572C38.8717 29.8664 37.8982 28.9008 36.6973 28.9011Z"
          fill="#38D200" />
        <path fill-rule="evenodd" clip-rule="evenodd"
          d="M26.1743 48.1237C26.6979 48.1236 27.0704 47.96 27.4338 47.7254L30.1556 45.9676L27.4338 44.2098C27.0669 43.9756 26.6818 43.8115 26.1743 43.8115C24.9735 43.8115 24 44.7768 24 45.9676C24 47.1584 24.9735 48.124 26.1743 48.1237Z"
          fill="#0473EA" />
        <path fill-rule="evenodd" clip-rule="evenodd"
          d="M85.2445 36.3707L86.0445 36.8553V42.65H85.2445V41.8314C84.8544 42.4021 84.23 42.7504 83.4788 42.7504C82.074 42.7504 81.0692 41.7153 81.0692 40.3029C81.0692 38.8615 82.074 37.8071 83.4788 37.8071C84.23 37.8071 84.8544 38.1651 85.2445 38.7455V36.3707ZM64.8587 36.3685L65.6489 36.8528V41.065C65.6489 41.7325 66.0586 41.9937 66.5757 41.9937C66.9659 41.9937 67.3561 41.8873 67.6976 41.6454V42.4097C67.3659 42.6515 66.9073 42.7482 66.5074 42.7482C65.483 42.7482 64.8587 42.2935 64.8587 41.0069V36.3685ZM78.2378 37.7941C79.623 37.7941 80.5302 38.8099 80.5302 40.1739C80.5302 40.3093 80.5205 40.4447 80.501 40.5705H76.7062C76.8232 41.4315 77.5061 42.0022 78.4621 42.0022C79.0767 42.0022 79.6718 41.8281 80.1791 41.4702V42.2247C79.662 42.573 79.0767 42.7374 78.4621 42.7374C76.95 42.7374 75.8672 41.77 75.8672 40.3093C75.8672 38.8776 76.7841 37.7941 78.2377 37.7941H78.2378ZM57.9272 37.7941C58.6784 37.7941 59.2929 38.1424 59.6929 38.7132V37.8812H60.4928V42.6504H59.6929V41.8378C59.2929 42.3989 58.6784 42.7374 57.9272 42.7374C56.5223 42.7374 55.5176 41.7023 55.5176 40.29C55.5176 38.8486 56.5223 37.7941 57.9272 37.7941V37.7941ZM48.0059 37.7941C48.5814 37.7941 49.118 37.9586 49.5473 38.2778V39.1581C49.1667 38.7519 48.64 38.539 48.0546 38.539C47.0303 38.539 46.3084 39.2452 46.3084 40.261C46.3084 41.2767 47.0401 41.9925 48.0645 41.9925C48.64 41.9925 49.1766 41.8377 49.596 41.4798V42.2827C49.1277 42.602 48.5717 42.7374 47.9864 42.7374C46.5133 42.7374 45.489 41.7217 45.489 40.261C45.489 38.8099 46.5425 37.7941 48.0059 37.7941ZM70.1018 37.7941C71.487 37.7941 72.3943 38.8099 72.3943 40.1739C72.3943 40.3093 72.3845 40.4447 72.365 40.5705H68.5702C68.6872 41.4315 69.3701 42.0022 70.3261 42.0022C70.9407 42.0022 71.5358 41.8281 72.0431 41.4702V42.2247C71.5261 42.573 70.9407 42.7374 70.3261 42.7374C68.814 42.7374 67.7312 41.77 67.7312 40.3093C67.7312 38.8776 68.6482 37.7941 70.1018 37.7941ZM50.474 36.3694L51.2641 36.8537L51.2642 38.6938C51.6251 38.1424 52.2007 37.7941 52.9323 37.7941C54.142 37.7941 54.7859 38.6744 54.7859 39.845V42.6504H53.9859V39.9804C53.9859 39.0517 53.5762 38.5584 52.7372 38.5584C51.8495 38.5584 51.2642 39.3129 51.2642 40.261V42.6504H50.474V36.3694ZM64.2681 37.7941V38.6938C63.3121 38.5584 62.5122 39.1968 62.5122 40.377V42.6504H61.7219V37.8812H62.5122V38.8969C62.8926 38.1907 63.5072 37.7941 64.2681 37.7941ZM75.8086 37.7941V38.6938C74.8526 38.5584 74.0526 39.1968 74.0526 40.377V42.6504H73.2624V37.8812H74.0526V38.8969C74.433 38.1907 75.0477 37.7941 75.8086 37.7941ZM83.5569 38.552C82.5814 38.552 81.8887 39.2871 81.8887 40.2932C81.8887 41.2799 82.5814 42.0055 83.5569 42.0055C84.5422 42.0055 85.2445 41.2799 85.2445 40.2932C85.2445 39.2871 84.5422 38.552 83.5569 38.552ZM58.0053 38.539C57.0297 38.539 56.337 39.2742 56.337 40.2803C56.337 41.267 57.0297 41.9925 58.0053 41.9925C58.9905 41.9925 59.6929 41.267 59.6929 40.2803C59.6929 39.2742 58.9905 38.539 58.0053 38.539ZM70.1115 38.5197C69.2336 38.5197 68.7068 39.1291 68.5799 39.932H71.5554C71.4773 39.1194 70.9602 38.5197 70.1115 38.5197ZM78.2475 38.5197C77.3696 38.5197 76.8427 39.1291 76.7159 39.932H79.6914C79.6133 39.1194 79.0962 38.5197 78.2475 38.5197ZM66.2627 37.8133C66.4657 37.6854 66.7254 37.6876 66.9261 37.819L67.7221 38.3442L66.9362 38.844C66.736 38.9714 66.4793 38.9717 66.2787 38.8448L66.2619 38.8342C65.8853 38.5961 65.8858 38.0507 66.2627 37.8132L66.2627 37.8133ZM55.1176 30.82C55.8688 30.82 56.4834 31.1683 56.8833 31.7391V30.9071H57.6833V35.6763H56.8833V34.8637C56.4834 35.4248 55.8688 35.7633 55.1176 35.7633C53.7128 35.7633 52.708 34.7282 52.708 33.3159C52.708 31.8745 53.7128 30.82 55.1176 30.82ZM50.4155 29.3791V34.0801C50.4155 34.7476 50.8253 35.0088 51.3423 35.0088C51.7326 35.0088 52.1227 34.9024 52.4642 34.6605V35.4248C52.1326 35.6666 51.674 35.7633 51.274 35.7633C50.2497 35.7633 49.6253 35.3087 49.6253 34.0221V29.8639L50.4155 29.3791ZM83.5646 29.3795V35.6763H82.7646V34.8443C82.3745 35.4151 81.7502 35.7633 80.999 35.7633C79.5941 35.7633 78.5894 34.7282 78.5894 33.3159C78.5894 31.8745 79.5941 30.82 80.999 30.82C81.7502 30.82 82.3745 31.178 82.7646 31.7584V29.8637L83.5646 29.3795ZM72.1994 30.82C72.9506 30.82 73.5651 31.1683 73.9651 31.7391V30.9071H74.765V35.6763H73.9651V34.8637C73.5651 35.4248 72.9506 35.7633 72.1994 35.7633C70.7946 35.7633 69.7898 34.7282 69.7898 33.3159C69.7898 31.8745 70.7946 30.82 72.1994 30.82ZM47.2157 30.82C47.7815 30.82 48.3083 30.9748 48.679 31.2554V32.0776C48.2401 31.6907 47.7034 31.4682 47.2255 31.4682C46.7181 31.4682 46.3572 31.7004 46.3572 32.0873C46.3572 32.3775 46.4938 32.5517 46.8743 32.6967L48.0157 33.1514C48.6302 33.4126 48.9132 33.7802 48.9132 34.2929C48.9132 35.2023 48.1717 35.7633 47.1279 35.7633C46.4938 35.7633 45.9182 35.5892 45.4987 35.2796V34.4284C46.006 34.9024 46.5718 35.1152 47.1377 35.1152C47.7034 35.1152 48.1132 34.8734 48.1132 34.438C48.1132 34.1768 47.9767 33.9737 47.6157 33.8286L46.4743 33.3739C45.889 33.1224 45.5671 32.7935 45.5671 32.1744C45.5671 31.3425 46.2402 30.82 47.2157 30.82ZM68.9312 29.3795V35.6763H68.1313V34.8443C67.7411 35.4151 67.1168 35.7633 66.3656 35.7633C64.9608 35.7633 63.956 34.7282 63.956 33.3159C63.956 31.8745 64.9608 30.82 66.3656 30.82C67.1168 30.82 67.7411 31.178 68.1313 31.7584V29.8637L68.9312 29.3795ZM78.5403 30.82V31.7197C77.5843 31.5843 76.7844 32.2228 76.7844 33.4029V35.6763H75.9941V30.9071H76.7844V31.9229C77.1648 31.2167 77.7794 30.82 78.5403 30.82ZM61.3707 30.82C62.5804 30.82 63.2243 31.7004 63.2243 32.8709V35.6763H62.4243V33.0063C62.4243 32.0776 62.0147 31.5843 61.1757 31.5843C60.2879 31.5843 59.7026 32.3388 59.7026 33.2869V35.6763H58.9124V30.9071H59.7026V31.7197C60.0635 31.1683 60.6391 30.82 61.3707 30.82ZM55.1957 31.5649C54.2201 31.5649 53.5274 32.3001 53.5274 33.3062C53.5274 34.2929 54.2201 35.0184 55.1957 35.0184C56.181 35.0184 56.8833 34.2929 56.8833 33.3062C56.8833 32.3001 56.181 31.5649 55.1957 31.5649ZM66.4437 31.5649C65.4681 31.5649 64.7754 32.3001 64.7754 33.3062C64.7754 34.2929 65.4681 35.0184 66.4437 35.0184C67.429 35.0184 68.1313 34.2929 68.1313 33.3062C68.1313 32.3001 67.429 31.5649 66.4437 31.5649ZM81.077 31.5649C80.1015 31.5649 79.4088 32.3001 79.4088 33.3062C79.4088 34.2929 80.1015 35.0184 81.077 35.0184C82.0623 35.0184 82.7646 34.2929 82.7646 33.3062C82.7646 32.3001 82.0623 31.5649 81.077 31.5649ZM72.2775 31.5649C71.3019 31.5649 70.6092 32.3001 70.6092 33.3062C70.6092 34.2929 71.3019 35.0184 72.2775 35.0184C73.2627 35.0184 73.9651 34.2929 73.9651 33.3062C73.9651 32.3001 73.2627 31.5649 72.2775 31.5649ZM51.517 30.8985C51.7169 30.7706 51.9736 30.7697 52.1745 30.8961L52.1914 30.9067C52.5685 31.1439 52.5693 31.6893 52.1929 31.9276C51.9903 32.056 51.7305 32.0543 51.5295 31.9235L50.7323 31.4001L51.517 30.8985Z"
          fill="white" />
      </g>
      <rect x="48" y="74" width="24" height="16" rx="3" fill="white" fill-opacity="0.5" />
      <path fill-rule="evenodd" clip-rule="evenodd"
        d="M62.0689 77.4034C61.1045 75.8911 58.8959 75.8904 57.9314 77.4026V77.4026C57.5513 77.9987 57.4495 78.7291 57.5739 79.425C57.7702 80.5236 57.9632 82.3085 57.6143 84.0758C57.4792 84.7601 57.53 85.4823 57.874 86.0891L57.9084 86.1497C58.8295 87.7744 61.1704 87.7744 62.0915 86.1497V86.1497C62.4547 85.509 62.5042 84.7345 62.3707 84.0102C62.1695 82.9187 62.0287 81.0792 62.5796 78.6981C62.6346 78.4603 62.6013 78.2381 62.47 78.0323C62.3664 77.8698 62.2278 77.6525 62.0689 77.4034Z"
        stroke="white" stroke-opacity="0.5" stroke-width="1.3" stroke-linejoin="bevel" />
      <path d="M48 78.5327H57.3333" stroke="white" stroke-opacity="0.5" stroke-width="1.3" stroke-linejoin="bevel" />
      <path d="M62.3997 78.5327H71.9997" stroke="white" stroke-opacity="0.5" stroke-width="1.3"
        stroke-linejoin="bevel" />
      <path d="M48 84.9323H57.3333" stroke="white" stroke-opacity="0.5" stroke-width="1.3" stroke-linejoin="bevel" />
      <path d="M62.3997 84.9323H71.9997" stroke="white" stroke-opacity="0.5" stroke-width="1.3"
        stroke-linejoin="bevel" />
      <g clip-path="url(#clip3_18_20233)">
        <path
          d="M34 74.6666L32.6666 76C35.98 79.3133 35.98 84.6866 32.6666 88L34 89.3333C38.0466 85.2866 38.0466 78.72 34 74.6666ZM28.6666 80L26.6666 82L28.6666 84C29.7733 82.9 29.7733 81.1066 28.6666 80ZM31.3333 77.3333L30 78.6666C31.84 80.5066 31.84 83.4933 30 85.3333L31.3333 86.6666C33.9066 84.0933 33.9066 79.9133 31.3333 77.3333Z"
          fill="white" fill-opacity="0.7" />
      </g>
    </g>
    <defs>
      <filter id="filter0_b_18_20233" x="-80" y="-80" width="495" height="345" filterUnits="userSpaceOnUse"
        color-interpolation-filters="sRGB">
        <feFlood flood-opacity="0" result="BackgroundImageFix" />
        <feGaussianBlur in="BackgroundImage" stdDeviation="40" />
        <feComposite in2="SourceAlpha" operator="in" result="effect1_backgroundBlur_18_20233" />
        <feBlend mode="normal" in="SourceGraphic" in2="effect1_backgroundBlur_18_20233" result="shape" />
      </filter>
      <filter id="filter1_d_18_20233" x="11" y="23.9999" width="88.0445" height="53.1295" filterUnits="userSpaceOnUse"
        color-interpolation-filters="sRGB">
        <feFlood flood-opacity="0" result="BackgroundImageFix" />
        <feColorMatrix in="SourceAlpha" type="matrix" values="0 0 0 0 0 0 0 0 0 0 0 0 0 0 0 0 0 0 127 0"
          result="hardAlpha" />
        <feOffset dy="16" />
        <feGaussianBlur stdDeviation="6.5" />
        <feColorMatrix type="matrix" values="0 0 0 0 0 0 0 0 0 0 0 0 0 0 0 0 0 0 0.03 0" />
        <feBlend mode="normal" in2="BackgroundImageFix" result="effect1_dropShadow_18_20233" />
        <feBlend mode="normal" in="SourceGraphic" in2="effect1_dropShadow_18_20233" result="shape" />
      </filter>
      <linearGradient id="paint0_linear_18_20233" x1="-48" y1="-20" x2="382" y2="205.5" gradientUnits="userSpaceOnUse">
        <stop offset="0.155325" stop-color="#3431C2" />
        <stop offset="0.91738" stop-color="#CD2525" />
      </linearGradient>
      <clipPath id="clip0_18_20233">
        <rect width="335" height="185" rx="20" fill="white" />
      </clipPath>
      <clipPath id="clip1_18_20233">
        <rect width="16" height="16" fill="white" transform="translate(295 144)" />
      </clipPath>
      <clipPath id="clip2_18_20233">
        <rect width="48" height="30" fill="white" transform="translate(263 24)" />
      </clipPath>
      <clipPath id="clip3_18_20233">
        <rect width="16" height="16" fill="white" transform="translate(40 74) rotate(90)" />
      </clipPath>
    </defs>
  </svg>